# xmcd
#
# Track frame offsets: 
#        150
#        17628
#        38924
#        57013
#        76494
#        98477
#        112304
#        131526
#        154422
#        173697
#
# Disc length: 3020 seconds
#
# Revision: 0
# Processed by: cddbd v1.5.2PL0 Copyright (c) Steve Scherf et al.
# Submitted via: ExactAudioCopyFreeDBPlugin 1.0
#
DISCID=790bca0a
DTITLE=The Teskey Brothers - Half Mile Harvest
DYEAR=2017
DGENRE=Soul
TTITLE0=Crying Shame
TTITLE1=I Love A Woman
TTITLE2=Pain and Misery
TTITLE3=Shiny Moon
TTITLE4=Reason Why
TTITLE5=Louisa
TTITLE6=Love Her With a Feeling
TTITLE7=Til' the Sky Turns Black
TTITLE8=Hard Feeling
TTITLE9=Honeymoon
EXTD=
EXTT0=
EXTT1=
EXTT2=
EXTT3=
EXTT4=
EXTT5=
EXTT6=
EXTT7=
EXTT8=
EXTT9=
PLAYORDER=
